/* XPM */
static char *ebe0a08dc15049b2d371aa14f2aeb3bfBIa2ZRC9UKYLSlPD[] = {
/* columns rows colors chars-per-pixel */
"64 64 36 1 ",
"  c #000001",
". c #E8F100",
"X c #151426",
"o c white",
"O c #FFA000",
"+ c #121221",
"@ c #EBF300",
"# c #1F1400",
"$ c #121210",
"% c #E38E00",
"& c #EBE800",
"* c #FEFFEC",
"= c #FDAA00",
"- c #ECF32E",
"; c #D2D2D2",
": c #FBFDD3",
"> c #EAF115",
", c #D1D903",
"< c #ECF227",
"1 c #212200",
"2 c #C9CF00",
"3 c #171800",
"4 c #FDFEE9",
"5 c #BDC300",
"6 c #38350F",
"7 c #E8E8E2",
"8 c #242425",
"9 c #151427",
"0 c #D6D7D0",
"q c #D48600",
"w c #C37B00",
"e c #E39900",
"r c gray71",
"t c #EBDD00",
"y c #E5EC00",
"u c #FAB300",
/* pixels */
"XXXXXXXXXXXXXXXXXXXXXXX+                +XXXXXXXXXXXXXXXXXXXXXXX",
"XXXXXXXXXXXXXXXXXXXXXXX+                +XXXXXXXXXXXXXXXXXXXXXXX",
"XXXXXXXXXXXXXXXXXXXXXXX+                +9XXXXXXXXXXXXXXXXXXXXXX",
"XXXXXXXXXXXXXXXXX+++++++$$$$$$$$$$$$$$$$+++++++XXXXXXXXXXXXXXXXX",
"XXXXXXXXXXXXXXXX       $r;;;;;;;;;;;;;;r8       +XXXXXXXXXXXXXXX",
"XXXXXXXXXXXXXXX+       $0oooooooooooooo78       +XXXXXXXXXXXXXXX",
"XXXXXXXXXXXXXXX+       $0oooooooooooooo78       +9XXXXXXXXXXXXXX",
"XXXXXXXXXXXXX+++$$$$$$$80*************476$$$$$$$++++XXXXXXXXXXXX",
"XXXXXXXXXXXX   $r0;;;;;0---------------<2555qqqw#   +XXXXXXXXXXX",
"XXXXXXXXXXX+   $0oooooo*<..............y@@@&=OO%#   +XXXXXXXXXXX",
"XXXXXXXXXXX+   $;oooooo4<..................&=OO%#   +XXXXXXXXXXX",
"XXXXXXXXXXX+   $;ooo*4*:<...>>>>>>>>>>>>...&=OO%#   +XXXXXXXXXXX",
"XXXXXXXXXXX+   $;oo*-<-<...>::::::::::::>..&=OO%#   +XXXXXXXXXXX",
"XXXXXXXXXXX+   $;oo4<......>:oooooooooo4<..&=OO%#   +XXXXXXXXXXX",
"XXXXXXXXXXX+   $;oo*-......>:oooooooooo4<..&=OO%#   +9XXXXXXXXXX",
"XXXXXXXX++++$$$80**:<...>>><:*4444447777>..&u==e1$$$++++XXXXXXXX",
"XXXXXXXX   $r0;0-<-<...>::::-<-----,6886,@..&t&t%qqw#   XXXXXXXX",
"XXXXXXXX   $;oo*-......>:oo4<.....@,1  32@.....&=OO%#   XXXXXXXX",
"XXXXXXXX   $;oo4-......>:oo4<......,1  32@.....&=OO%#   XXXXXXXX",
"XXXXXXXX   $;oo4-......>:oo4<......,1  32@.....&=OO%#   XXXXXXXX",
"XXXXXXXX   $;oo4-......>:oo4<......,1  32@.....&=OO%#   XXXXXXXX",
"XXXXXXXX   $;oo4-......>:oo4<......,1  32@.....&=OO%#   XXXXXXXX",
"XXXXXXXX   $;oo4-......>:oo4<......,1  32@.....&=OO%#   XXXXXXXX",
"XXXXXXXX   $;oo4-......>:oo4<......,1  32@.....&=OO%#   XXXXXXXX",
"XXXXXXXX   $;oo4-......>:oo4<......,1  32@.....&=OO%#   XXXXXXXX",
"XXXXXXXX   $;oo4-......>:oo4<......,1  32@.....&=OO%#   XXXXXXXX",
"XXXXXXXX   $;oo4-......>:oo4<......,1  32@.....&=OO%#   XXXXXXXX",
"XXXXXXXX   $;oo4-......>:oo4<......,1  32@.....&=OO%#   XXXXXXXX",
"XXXXXXXX   $;oo4-......>:oo4<......,1  32@.....&=OO%#   XXXXXXXX",
"XXXXXXXX   $;oo4-......>:oo4<......,1  32@.....&=OO%#   XXXXXXXX",
"XXXXXXXX   $;oo4-......>:oo4<......,1  32@.....&=OO%#   XXXXXXXX",
"XXXXXXXX   $;oo4-......>:oo4<......,1  32@.....&=OO%#   XXXXXXXX",
"XXXXXXXX   $;oo4-......>:oo4<......,1  32@.....&=OO%#   XXXXXXXX",
"XXXXXXXX   $;oo4-......>:oo4<......,1  32@.....&=OO%#   XXXXXXXX",
"XXXXXXXX   $;oo4-......>:oo4<......,1  32@.....&=OO%#   XXXXXXXX",
"XXXXXXXX   $;oo4-......>:oo4<......,1  32@.....&=OO%#   XXXXXXXX",
"XXXXXXXX   $;oo4-......>:oo4<......,1  32@.....&=OO%#   XXXXXXXX",
"XXXXXXXX   $;oo4-......>:oo4<......,1  32@.....&=OO%#   XXXXXXXX",
"XXXXXXXX   $;oo4-......>:oo4<......,1  32@.....&=OO%#   XXXXXXXX",
"XXXXXXXX   $;oo4-......>:oo4<......,1  32@.....&=OO%#   XXXXXXXX",
"XXXXXXXX   $;oo4-......>:oo4<......,1  32@.....&=OO%#   XXXXXXXX",
"XXXXXXXX   $;oo4-......>:oo4<......,1  32@.....&=OO%#   XXXXXXXX",
"XXXXXXXX   $;oo4-......>:oo4<......,1  32@.....&=OO%#   XXXXXXXX",
"XXXXXXXX   $;oo4-......>:oo4<......,1  32@.....&=OO%#   XXXXXXXX",
"XXXXXXXX   $;oo4-......>:oo4<......,1  32@.....&=OO%#   XXXXXXXX",
"XXXXXXXX   $;oo4-......>:oo4<......,1  32@.....&=OO%#   XXXXXXXX",
"XXXXXXXX   $;oo*-......>:oo4-.@@@@@,1  32@.....&=OO%#   XXXXXXXX",
"XXXXXXXX   $r777<.......:44:,,,,,,,563362@..&&&te%%w#   XXXXXXXX",
"XXXXXXXX++++88862@......><<,611111165222y..&u==e6###++++XXXXXXXX",
"XXXXXXXXXX9+   $5@........@,1      32@@@...&=OO%#   +9XXXXXXXXXX",
"XXXXXXXXXXX+   $5@.........,1      32@.....&=OO%#   +XXXXXXXXXXX",
"XXXXXXXXXXX+   $5@........@,633333362@..&&&t=OO%#   +XXXXXXXXXXX",
"XXXXXXXXXXX+   $5@.........y,2222222y..&u===OOO%#   +XXXXXXXXXXX",
"XXXXXXXXXXX+   $5@...........@@@@@@@...&=OOOOOO%#   +XXXXXXXXXXX",
"XXXXXXXXXXX+   $5@@@@@@@...............&=OOOOOO%#   +XXXXXXXXXXX",
"XXXXXXXXXXX9   $5,,,,,,,&&&&&&&&&&&&&&&te%%%%%%w#   +XXXXXXXXXXX",
"XXXXXXXXXXXX++++31131311e==============e6#######++++XXXXXXXXXXXX",
"XXXXXXXXXXXXXX9+       $qOOOOOOOOOOOOOO%#       +9XXXXXXXXXXXXXX",
"XXXXXXXXXXXXXXX+       $qOOOOOOOOOOOOOO%#       +XXXXXXXXXXXXXXX",
"XXXXXXXXXXXXXXXX       $w%%%%%%%%%%%%%%q#       +XXXXXXXXXXXXXXX",
"XXXXXXXXXXXXXXXX++++++++################++++++++XXXXXXXXXXXXXXXX",
"XXXXXXXXXXXXXXXXXXXXXX9+                +9XXXXXXXXXXXXXXXXXXXXXX",
"XXXXXXXXXXXXXXXXXXXXXXX+                +XXXXXXXXXXXXXXXXXXXXXXX",
"XXXXXXXXXXXXXXXXXXXXXXX+                +XXXXXXXXXXXXXXXXXXXXXXX"
};
