/* XPM */
static char *ef7eadab2b574b1595b60be091a02c46gbUpsSdOUawDGjO2[] = {
/* columns rows colors chars-per-pixel */
"64 64 27 1 ",
"  c #022F03",
". c #052B09",
"X c #052C09",
"o c #003200",
"O c #0D3E01",
"+ c #151426",
"@ c #005F00",
"# c #076201",
"$ c #2A7104",
"% c #4E7F07",
"& c #008C00",
"* c #068F01",
"= c #0C8A01",
"- c #0D9101",
"; c #189602",
": c #558207",
"> c #4FA607",
", c #4FAC07",
"< c #54AF07",
"1 c #5AB208",
"2 c #7FC10B",
"3 c #91BB0D",
"4 c #9DC60E",
"5 c #92C80D",
"6 c #9DCD0E",
"7 c #A4CF0E",
"8 c #AAD20F",
/* pixels */
"++++++++++++++++++++++++++++++++++++++++++++++++++++++++++++++++",
"++++++++++++++++++++++++++++++++++++++++++++++++++++++++++++++++",
"++++++++++++++++++++++++++++++++++++++++++++++++++++++++++++++++",
"++++++++++++++++++++++++++++++++++++++++++++++++++++++++++++++++",
"++++++++++++++++++++++++++++++++++++++++++++++++++++++++++++++++",
"++++++++++++++++++++++++++++++++++++++++++++++++++++++++++++++++",
"++++++++++++++++++++++++++++++++++++++++++++++++++++++++++++++++",
"++++++++++++++++++++++++++++++++++++++++++++++++++++++++++++++++",
"++++++++++++++++++++++++++++++++++++++++++++++++++++++++++++++++",
"++++++++++++++++++++++++++++++++++++++++++++++++++++++++++++++++",
"++++++++++++++++++++++++++++++++++++++++++++++++++++++++++++++++",
"++++++++++++++++++++++++++++++++++++++++++++++++++++++++++++++++",
"++++++++++++oooooooooooooooooooooooooooooooooooooooo++++++++++++",
"++++++++++++o34444444444444444444444444444444444443o++++++++++++",
"++++++++++++o><<<<<28888888<<<<<<<<<<<<<<<<<<<<<<<>o++++++++++++",
"++++++++++++o=---&&<8888888&---&&&&&&&&&&&&-*&-&--=o++++++++++++",
"++++++++++++o4888&&<8888888&686&&&&&&&&&&&&6<-8&684o++++++++++++",
"++++++++++++o4888&&<8888888&686&&&&&&&&&&&&&<6&8884o++++++++++++",
"++++++++++++o4888&&<8888888&686&&&&&&&&&&&&5<;6-684o++++++++++++",
"++++++++++++o4888&&<8888888&686&&&&&&&&&&&&,<<<<784o++++++++++++",
"++++++++++++o4888&&<8888888&686&&&&&&&&&&&&-<5-6884o++++++++++++",
"++++++++++++o4888&&<8888888&686&&&&&&&&&&&&6<-8&684o++++++++++++",
"++++++++++++o4888&&<8888888&686&&&&&&&&&&&&&<6&8884o++++++++++++",
"++++++++++++o4888&&<8888888&686&&&&&&&&&&&&5<;6-684o++++++++++++",
"++++++++++++o4888&&<8888888&686&&&&&&&&&&&&,<<<<784o++++++++++++",
"++++++++++++o4888&&<8888888&686&&&&&&&&&&&&-<5-6884o++++++++++++",
"++++++++++++o4888&&<8888888&686&&&&&&&&&&&&6<-8&684o++++++++++++",
"++++++++++++o4888&&<8888888&686&&&&&&&&&&&&&<6&8884o++++++++++++",
"++++++++++++o4888&&<8888888&686&&&&&&&&&&&&5<;6-684o++++++++++++",
"++++++++++++o%:::@@$:::::::@%:%@@@@@@@@@@@@%$#:@%:%o++++++++++++",
"++++++++++++  oooooooooooooooooooooooooooooooooooo  ++++++++++++",
"++++++++++++++.oooooooooooooooooooooooooooooooooo.++++++++++++++",
"++++++++++++++.O888<&&888888-<88&&&&&&&&&&8-<888O.++++++++++++++",
"++++++++++++++.O888<&&888888-<88&&&&&&&&&&-5<;88O.++++++++++++++",
"++++++++++++++.O888<&&888888-<88&&&&&&&&&&<<<188O.++++++++++++++",
"++++++++++++++.O888<&&888888-<88&&&&&&&&&&6;<688O.++++++++++++++",
"++++++++++++++.O888<&&888888-<88&&&&&&&&&&&6<-88O.++++++++++++++",
"++++++++++++++.O888<&&888888-<88&&&&&&&&&&8-<888O.++++++++++++++",
"++++++++++++++.O888<&&888888-<88&&&&&&&&&&-5<;88O.++++++++++++++",
"++++++++++++++.O888<&&888888-<88&&&&&&&&&&<<<188O.++++++++++++++",
"++++++++++++++.O888<&&888888-<88&&&&&&&&&&6;<688O.++++++++++++++",
"++++++++++++++.O888<&&888888-<88&&&&&&&&&&&6<-88OX++++++++++++++",
"++++++++++++++.O888<&&888888-<88&&&&&&&&&&8-<888O.++++++++++++++",
"++++++++++++++.O888<&&888888-<88&&&&&&&&&&-5<;88O.++++++++++++++",
"++++++++++++++.O888<&&888888-<88&&&&&&&&&&<<<188O.++++++++++++++",
"++++++++++++++.O888<&&888888-<88&&&&&&&&&&6;<688O.++++++++++++++",
"++++++++++++++.O888<&&888888-<88&&&&&&&&&&&6<-88O.++++++++++++++",
"++++++++++++++.O888<&&888888-<88&&&&&&&&&&8-<888O.++++++++++++++",
"++++++++++++++.O888<&&888888-<88&&&&&&&&&&-5<;88O.++++++++++++++",
"++++++++++++++.O888<&&888888-<88&&&&&&&&&&<<<188O.++++++++++++++",
"++++++++++++++.O888<&&888888-<88&&&&&&&&&&6;<688O.++++++++++++++",
"++++++++++++++.O888<&&888888-<88&&&&&&&&&&&6<-88O.++++++++++++++",
"++++++++++++++++++++++++++++++++++++++++++++++++++++++++++++++++",
"++++++++++++++++++++++++++++++++++++++++++++++++++++++++++++++++",
"++++++++++++++++++++++++++++++++++++++++++++++++++++++++++++++++",
"++++++++++++++++++++++++++++++++++++++++++++++++++++++++++++++++",
"++++++++++++++++++++++++++++++++++++++++++++++++++++++++++++++++",
"++++++++++++++++++++++++++++++++++++++++++++++++++++++++++++++++",
"++++++++++++++++++++++++++++++++++++++++++++++++++++++++++++++++",
"++++++++++++++++++++++++++++++++++++++++++++++++++++++++++++++++",
"++++++++++++++++++++++++++++++++++++++++++++++++++++++++++++++++",
"++++++++++++++++++++++++++++++++++++++++++++++++++++++++++++++++",
"++++++++++++++++++++++++++++++++++++++++++++++++++++++++++++++++",
"++++++++++++++++++++++++++++++++++++++++++++++++++++++++++++++++"
};
