/* XPM */
static char *dcc3b1ec2f8e4d8ada050b93827b4306tXpOo2wAJvLz5JPk[] = {
/* columns rows colors chars-per-pixel */
"64 64 109 2 ",
"   c black",
".  c #0D0A00",
"X  c #06060C",
"o  c #08080E",
"O  c #150605",
"+  c #0C0B16",
"@  c #210F05",
"#  c #151426",
"$  c #1A1526",
"%  c #1B1925",
"&  c #13183B",
"*  c #211727",
"=  c #281828",
"-  c #362C21",
";  c #3A2825",
":  c #4E3B02",
"Z  c #5A232A",
",  c #513525",
"<  c #5F3D24",
"1  c #000000",
"2  c #74282D",
"3  c #584302",
"4  c #57441D",
"5  c #5D491C",
"6  c #6E551B",
"7  c #5F443B",
"8  c #5A413E",
"9  c #744825",
"0  c #784A25",
"q  c #111C4B",
"w  c #111B4C",
"e  c #6D4D44",
"r  c #61484C",
"t  c #715045",
"y  c #765345",
"u  c #775447",
"i  c #785447",
"p  c #7D5846",
"a  c #75514B",
"s  c #795548",
"d  c #8D2D2F",
"f  c #9F322F",
"g  c #A0322F",
"h  c #000000",
"j  c #B03531",
"k  c #C93A33",
"l  c #CD3B33",
"z  c #000000",
"x  c #D83E34",
"c  c #806418",
"v  c #A57F13",
"b  c #8A5424",
"n  c #000000",
"m  c #91683C",
"M  c #F6582E",
"N  c #EE4236",
"B  c #ED433C",
"V  c #EE4939",
"C  c #F14235",
"Z  c #000000",
"A  c #F44337",
"S  c #000000",
"D  c #F55330",
"F  c #DD733B",
"G  c #F77324",
"H  c #F87324",
"J  c #835346",
"K  c #845E43",
"L  c #A77266",
"P  c #C9425A",
"I  c #A68012",
"U  c #BD8C27",
"Y  c #B7872A",
"T  c #BC812B",
"R  c #D6A30D",
"E  c #E9B106",
"W  c #EBB209",
"Q  c #FCBF07",
"!  c #F0B50E",
"~  c #FBB40B",
"^  c #FFB60B",
"/  c #F4B80C",
"(  c #FBBD09",
")  c #F8BD0E",
"_  c #F2BA14",
"`  c #C9A63C",
"'  c #E5B421",
"]  c #FFC107",
"[  c #BC9F48",
"{  c #8A8779",
"}  c #C2A242",
"|  c #0B288A",
" . c #0C288A",
".. c #0A2B9B",
"X. c #0A2C9B",
"o. c #6A719A",
"O. c #7041A3",
"+. c #6171A0",
"@. c #0435C9",
"#. c #033BE4",
"$. c #013FF4",
"%. c #013FF9",
"&. c #2C57D3",
"*. c #2C56D5",
"=. c #1044E2",
"-. c #0D40F5",
";. c #3715b3",
":. c #2050E0",
"Z. c #828280",
/* pixels */
"# # # # # # # # # # # # # # # # # # # # # # # # # # # # # # # # # # # # # # # # # # # # # # # # # # # # # # # # # # # # # # # # ",
"# # # # # # # # # # # # # # # # # # # # # # # # # # # # # # # # # # # # # # # # # # # # # # # # # # # # # # # # # # # # # # # # ",
"# # # # # # # # # # # # # # # # # # # # 1 1 1 1 1 1 1 1 1 1 1 1 1 1 1 1 1 1 1 # # # # # # # # # # # # # # # # # # # # # # # # # ",
"# # # # # # # # # # # # # # # # # # # $ Z Z Z Z Z Z Z Z Z Z Z Z Z Z Z Z Z Z Z # # # # # # # # # # # # # # # # # # # # # # # # # ",
"# # # # # # # # # # # # # # # # # # # $ Z Z Z Z Z Z Z Z Z Z Z Z Z Z Z Z Z Z Z # # # # # # # # # # # # # # # # # # # # # # # # # ",
"# # # # # # # # # # # # # # # # # # # $ Z Z Z Z Z Z Z Z Z Z Z Z Z Z Z Z Z Z Z # # # # # # # # # # # # # # # # # # # # # # # # # ",
"# # # # # # # # # # # # # # # # h h h h Z Z Z Z Z Z Z Z Z Z Z Z Z Z Z Z Z Z Z h h h h h h h h h h h h # # # # # # # # # # # # # ",
"# # # # # # # # # # # # # # # # Z Z Z Z Z Z Z Z Z Z Z Z Z Z Z Z Z Z Z Z Z Z Z Z Z Z Z Z Z Z Z Z Z Z h # # # # # # # # # # # # # ",
"# # # # # # # # # # # # # # # # Z Z Z Z Z Z Z Z Z Z Z Z Z Z Z Z Z Z Z Z Z Z Z Z Z Z Z Z Z Z Z Z Z Z h # # # # # # # # # # # # # ",
"# # # # # # # # # # # # # # # # Z Z Z Z Z Z Z Z Z Z Z Z Z Z Z Z Z Z Z Z Z Z Z Z Z Z Z Z Z Z Z Z Z Z h # # # # # # # # # # # # # ",
"# # # # # # # # # # # # # # # # s s s s s s s s s s s s ] ] ] ] ] ] ] . z z z ] ] ] ] # # # # # # # # # # # # # # # # # # # # # ",
"# # # # # # # # # # # # # # # # s s s s s s s s s s s s ] ] ] ] ] ] ] .       ] ] ] Q # # # # # # # # # # # # # # # # # # # # # ",
"# # # # # # # # # # # # # # # # s s s s s s s s s s s s ] ] ] ] ] ] ] .       ] ] ] Q # # # # # # # # # # # # # # # # # # # # # ",
"# # # # # # # # # # # # # # # # s s s s s s s s s s s s ] ] ] ] ] ] ] .       ] ] ] Q # # # # # # # # # # # # # # # # # # # # # ",
"# # # # # # # # # # # # y s s s ] ] ] ( s s s m ] ] ] ] ] ] ] ] ] ] ] .       ] ] ] ] ] ] ] ] ] ] ] v # # # # # # # # # # # # # ",
"# # # # # # # # # # # # u s s s ] ] ] ( s s s m ] ] ] ] ] ] ] ] ] ] ] .       ] ] ] ] ] ] ] ] ] ] ] I # # # # # # # # # # # # # ",
"# # # # # # # # # # # # u s s s ] ] ] ( s s s m ] ] ] ] ] ] ] ] ] ] ] .       ] ] ] ] ] ] ] ] ] ] ] I # # # # # # # # # # # # # ",
"# # # # # # # # # # # # u s s s ] ] ] ( s s s m ] ] ] ] ] ] ] ] ] ] ] .       ] ] ] ] ] ] ] ] ] ] ] I # # # # # # # # # # # # # ",
"# # # # # # # # # # # # i s s s ] ] ] ( s s s s s s s Y ] ] ] ] ] ] ] ] ] ] ]         ] ] ] ] ] ] ] ] ] ] ] 5 # # # # # # # # # ",
"# # # # # # # # # # # # u s s s ] ] ] ( s s s s s s s Y ] ] ] ] ] ] ] ] ] ] ]         ] ] ] ] ] ] ] ] ] ] ] 5 # # # # # # # # # ",
"# # # # # # # # # # # # u s s s ] ] ] ( s s s s s s s Y ] ] ] ] ] ] ] ] ] ] ]         ] ] ] ] ] ] ] ] ] ] ] 5 # # # # # # # # # ",
"# # # # # # # # # # # # e t t t / / / ! K K K K K K K U ] ] ] ] ] ] ] E E E E         E E E E E E E W W W W 4 # # # # # # # # # ",
"# # # # # # # # # # # # # # # # s s s p ] ] ] ] ] ] ] ] ] ] ] ] ] ] ] .                             o # # # # # # # # # # # # # ",
"# # # # # # # # # # # # # # # # s s s p ] ] ] ] ] ] ] ] ] ] ] ] ] ] ] .                             o # # # # # # # # # # # # # ",
"# # # # # # # # # # # # # # # # s s s p ] ] ] ] ] ] ] ] ] ] ] ] ] ] ] .                             o # # # # # # # # # # # # # ",
"# # # # # # # # # # # # # # # # 8 8 8 7 ] ] ] ] ] ] ] ] ] ] ] ] ] ] ] 3 : : : : : : : X X X X X X X + # # # # # # # # # # # # # ",
"# # # # # # # # # # # # # # # # # # # % ] ] ] ] ] ] ] ] ] ] ] ] ] ] ] ] ] ] ] ] ] ] Q # # # # # # # # # # # # # # # # # # # # # ",
"# # # # # # # # # # # # # # # # # # # % ] ] ] ] ] ] ] ] ] ] ] ] ] ] ] ] ] ] ] ] ] ] Q # # # # # # # # # # # # # # # # # # # # # ",
"# # # # # # # # # # # # # # # # # # # % ] ] ] ] ] ] ] ] ] ] ] ] ] ] ] ] ] ] ] ] ] ] Q # # # # # # # # # # # # # # # # # # # # # ",
"# # # # # # # # # # # # # # # # Z Z Z Z Z Z Z Z ;.;.;.Z E E E E E E E Z ;.;.;.Z Z Z Z Z Z Z Z # # # # # # # # # # # # # # # # # ",
"# # # # # # # # # # # # # # # # Z Z Z Z Z Z Z Z ;.;.;.Z Z E E E E E Z Z ;.;.;.Z Z Z Z Z Z Z Z # # # # # # # # # # # # # # # # # ",
"# # # # # # # # # # # # # # # # Z Z Z Z Z Z Z Z ;.;.;.Z Z Z Z Z Z Z Z Z ;.;.;.Z Z Z Z Z Z Z Z # # # # # # # # # # # # # # # # # ",
"# # # # # # # # # # # # # # # # Z Z Z Z Z Z Z Z ;.;.;.Z Z Z Z Z Z Z Z Z ;.;.;.Z Z Z Z Z Z Z Z # # # # # # # # # # # # # # # # # ",
"# # # # # # # # # # # # Z Z Z Z Z Z Z Z Z Z Z Z ;.;.;.Z Z Z Z Z Z Z Z Z ;.;.;.Z Z Z Z Z Z Z Z Z Z Z Z # # # # # # # # # # # # # ",
"# # # # # # # # # # # # Z Z Z Z Z Z Z Z Z Z Z Z ;.;.;.Z Z Z Z Z Z Z Z Z ;.;.;.Z Z Z Z Z Z Z Z Z Z Z Z # # # # # # # # # # # # # ",
"# # # # # # # # # # # # Z Z Z Z Z Z Z Z Z Z Z Z ;.;.;.Z Z Z Z Z Z Z Z Z ;.;.;.Z Z Z Z Z Z Z Z Z Z Z Z # # # # # # # # # # # # # ",
"# # # # # # # # # # # # Z Z Z Z Z Z Z Z Z Z Z Z ;.;.;.Z Z Z Z Z Z Z Z Z ;.;.;.Z Z Z Z Z Z Z Z Z Z Z Z # # # # # # # # # # # # # ",
"# # # # # # # # Z Z Z Z Z Z Z Z Z Z Z Z Z Z Z Z ;.;.;.;.;.;.;.;.;.;.;.;.;.;.;.Z Z Z Z Z Z Z Z Z Z Z Z Z Z Z Z # # # # # # # # # ",
"# # # # # # # # Z Z Z Z Z Z Z Z Z Z Z Z Z Z Z Z ;.;.;.;.;.;.;.;.;.;.;.;.;.;.;.Z Z Z Z Z Z Z Z Z Z Z Z Z Z Z Z # # # # # # # # # ",
"# # # # # # # # Z Z Z Z Z Z Z Z Z Z Z Z Z Z Z Z ;.;.;.;.;.;.;.;.;.;.;.;.;.;.;.Z Z Z Z Z Z Z Z Z Z Z Z Z Z Z Z # # # # # # # # # ",
"# # # # # # # # Z Z Z Z Z Z Z Z Z Z Z Z Z Z Z ;.;.;.;.;.;.;.;.;.;.;.;.;.;.;.;.;.Z Z Z Z Z Z Z Z Z Z Z Z Z Z Z # # # # # # # # # ",
"# # # # # # # # ] ] ] ] ] ] ] ] Z Z Z Z ;.;.;.;.Z Z Z Z ;.;.;.;.;.;.;.Z Z Z Z ;.;.;.;.Z Z Z z ] ] ] ] ] ] ] 5 # # # # # # # # # ",
"# # # # # # # # ] ] ] ] ] ] ] ] Z Z Z Z ;.;.;.;.Z Z Z Z ;.;.;.;.;.;.;.Z Z Z Z ;.;.;.;.Z Z Z Z ] ] ] ] ] ] ] 5 # # # # # # # # # ",
"# # # # # # # # ] ] ] ] ] ] ] ] Z Z Z Z ;.;.;.;.Z Z Z Z ;.;.;.;.;.;.;.Z Z Z Z ;.;.;.;.Z Z Z Z ] ] ] ] ] ] ] 5 # # # # # # # # # ",
"# # # # # # # # ] ] ] ] ] ] ] ] S S S Z ;.;.;.;.Z Z Z Z ;.;.;.;.;.;.;.Z Z Z Z ;.;.;.;.S S S Z ] ] ] ] ] ] ] 5 # # # # # # # # # ",
"# # # # # # # # ] ] ] ] ] ] ] ] ] ] ] ) ;.;.;.;.;.;.;.;.;.;.;.;.;.;.;.;.;.;.;.;.;.;.;.] ] ] ] ] ] ] ] ] ] ] 5 # # # # # # # # # ",
"# # # # # # # # ] ] ] ] ] ] ] ] ] ] ] ) ;.;.;.;.;.;.;.;.;.;.;.;.;.;.;.;.;.;.;.;.;.;.;.] ] ] ] ] ] ] ] ] ] ] 5 # # # # # # # # # ",
"# # # # # # # # ] ] ] ] ] ] ] ] ] ] ] ) ;.;.;.;.;.;.;.;.;.;.;.;.;.;.;.;.;.;.;.;.;.;.;.] ] ] ] ] ] ] ] ] ] ] 5 # # # # # # # # # ",
"# # # # # # # # ] ] ] ] ] ] ] ] ;.;.;.;.;.;.;.;.;.;.;.;.;.;.;.;.;.;.;.;.;.;.;.;.;.;.;.;.;.;.;.] ] ] ] ] ] ] 5 # # # # # # # # # ",
"# # # # # # # # ] ] ] ] ] ] ] ] ;.;.;.;.;.;.;.;.;.;.;.;.;.;.;.;.;.;.;.;.;.;.;.;.;.;.;.;.;.;.:.] ] ] ] ] ] ] 5 # # # # # # # # # ",
"# # # # # # # # ] ] ] ] ] ] ] ] ;.;.;.;.;.;.;.;.;.;.;.;.;.;.;.;.;.;.;.;.;.;.;.;.;.;.;.;.;.;.:.] ] ] ] ] ] ] 5 # # # # # # # # # ",
"# # # # # # # # ] ] ] ] ] ] ] ] ;.;.;.;.;.;.;.;.;.;.;.;.;.;.;.;.;.;.;.;.;.;.;.;.;.;.;.;.;.;.:.] ] ] ] ] ] ] 5 # # # # # # # # # ",
"# # # # # # # # 6 c c c c c c c ;.;.;.;.;.;.;.;.;.;.;.@.|  .| | | | | %.;.;.;.;.;.;.;.;.;.;.=.c c c c c c c - # # # # # # # # # ",
"# # # # # # # # # # # # # # # # ;.;.;.;.;.;.;.;.;.;.;.X.# # # # # # # $.;.;.;.;.;.;.;.;.;.;.#.# # # # # # # # # # # # # # # # # ",
"# # # # # # # # # # # # # # # # ;.;.;.;.;.;.;.;.;.;.;.X.# # # # # # # $.;.;.;.;.;.;.;.;.;.;.#.# # # # # # # # # # # # # # # # # ",
"# # # # # # # # # # # # # # # # ;.;.;.;.;.;.;.;.;.;.;...# # # # # # # $.;.;.;.;.;.;.;.;.;.;.#.# # # # # # # # # # # # # # # # # ",
"# # # # # # # # # # # # 9 0 0 0 a a a a a a a r w w w & # # # # # # # q w w w a a a a a a a a 0 0 0 , # # # # # # # # # # # # # ",
"# # # # # # # # # # # # b n n n n n n n n n n 0 # # # # # # # # # # # # # # # n n n n n n n n n n n < # # # # # # # # # # # # # ",
"# # # # # # # # # # # # b n n n n n n n n n n 0 # # # # # # # # # # # # # # # n n n n n n n n n n n < # # # # # # # # # # # # # ",
"# # # # # # # # # # # # b n n n n n n n n n n 0 # # # # # # # # # # # # # # # n n n n n n n n n n n < # # # # # # # # # # # # # ",
"# # # # # # # # 9 b b b n n n n n n n n n n n 0 # # # # # # # # # # # # # # # n n n n n n n n n n n n b b b ; # # # # # # # # # ",
"# # # # # # # # 0 n n n n n n n n n n n n n n 0 # # # # # # # # # # # # # # # n n n n n n n n n n n n n n n ; # # # # # # # # # ",
"# # # # # # # # 0 n n n n n n n n n n n n n n 0 # # # # # # # # # # # # # # # n n n n n n n n n n n n n n n ; # # # # # # # # # ",
"# # # # # # # # 0 n n n n n n n n n n n n n n 0 # # # # # # # # # # # # # # # n n n n n n n n n n n n n n n ; # # # # # # # # # "
};
