/* XPM */
static char *_251cf280cd44b8b901bfc2bb9aa380fXMUdqbgZx4b1hzUk[] = {
/* columns rows colors chars-per-pixel */
"64 64 14 1 ",
"  c #8D9DB6",
". c #5A6884",
"X c #8B9BB4",
"o c #75849E",
"O c #65748F",
"+ c #8393AD",
"@ c #52607C",
"# c #B3BFD2",
"$ c #91A1B9",
"% c #616F8A",
"& c #A2B0C6",
"* c #98A5BB",
"= c #6F7E99",
"- c #7B89A2",
/* pixels */
"@@@@@@@@@@@@@@@@@@@@@@@@@@@@@@@@@@@@@@@@@@@@@@@@@@@@@@@@@@@@@@@@",
"@@@@@@@@@@@@@@@@@@@@@@@@@@@@@@@@@@@@@@@@@@@@@@@@@@@@@@@@@@@@@@@@",
".......................@@@@@....%.%%%%%%%%%%%%.%...@@@@@........",
"OOOOOOOOOOOOOOOOOOOOOO%%.@@.%OO==o--o-o-o-o-o-o==OO%.@@.%OOOOOOO",
"oooooooooooooooooooo-o=O%...O=-+X$************$X+-=O...%O=oooooo",
"++++++++++++++++++++++-=%..%=-X*&&############&&$X-=%..%=-++++++",
"XXXXXXXXXXXXXXXXXXXX X+oO..Oo+$&&##############&&$+oO..Oo+X XXXX",
"                   $$ +oO..Oo+$&&##############&&$+oO..Oo+ $    ",
"                    $X+oO..Oo+ **&&&&&&&&&&&&&&** +oO..Oo+X     ",
"XXXXXXXXXXXXXXXXXXX  X+oO..Oo+X$$$$$$$$$$$$$$$$$$X+oO..Oo+X  XXX",
"XXXXXXXXXXXXXXXXXXX  X+oO..Oo+X  XXXXXXXXXXXXXX  X+oO..Oo+X  XXX",
"                    $X+oO..Oo+X  XXXXXXXXXXXXXX  X+oO..Oo+X     ",
"                   $$ +oO..Oo+ $ XXXXXXXXXXXXXX $ +oO..Oo+ $    ",
"XXXXXXXXXXXXXXXXXXXX X+oO..Oo+X XXXXXXXXXXXXXXXX X+oO..Oo+X XXXX",
"++++++++++++++++++++++-=%..%=-++++++++++++++++++++-=%..%=-++++++",
"oooooooooooooooooooooo=O.@@.O=oooooooooooooooooooo=O.@@.O=oooooo",
"O%O%O%O%OOOOOOOOOOOOOO%..@@..%OOOOOOOOOOOOOOOOOOOO%.@@@@.%OOOOOO",
"........................@@@@.........................@@@........",
"%%%%%%%%....@@@@........................@@@@....%%%%%%%%%%%%%%%%",
"ooo--oo==O%..@@..%OOOOOOOOOOOOOOOOOOOO%..@@..%O==o--------oooooo",
"******$X+-=O.@@.O=oooooooooooooooooooo=O.@@.O=-+X$**************",
"######&&$X-=%..%=-++++++++++++++++++++-=%..%=-X*&&##############",
"#######&&$+oO..Oo+X XXXXXXXXXXXXXXXX X+oO..Oo+$&&###############",
"#######&&$+oO..Oo+ $$              $$ +oO..Oo+$&&###############",
"&&&&&&&** +oO..Oo+X$                $X+oO..Oo+ **&&&&&&&&&&&&&&&",
"$$$$$$$$$X+oO..Oo+X  XXXXXXXXXXXXXX  X+oO..Oo+X$$$$$$$$$$$$$$$$$",
"XXXXXXX  X+oO..Oo+X  XXXXXXXXXXXXXX  X+oO..Oo+X  XXXXXXXXXXXXXXX",
"XXXXXXX  X+oO..Oo+X$                $X+oO..Oo+X  XXXXXXXXXXXXXXX",
"XXXXXXX $ +oO..Oo+ $$              $$ +oO..Oo+ $ XXXXXXXXXXXXXXX",
"XXXXXXXX X+oO..Oo+X XXXXXXXXXXXXXXXX X+oO..Oo+X XXXXXXXXXXXXXXXX",
"++++++++++-=%..%=-++++++++++++++++++++-=%..%=-++++++++++++++++++",
"oooooooooo=O.@@.O=oooooooooooooooooooo=O.@@.O=oooooooooooooooooo",
"OOOOOOOOOO%..@@..%OOOOOOOOOOOOOOO%OOOO%.@@@@.%OOOOOOOOOOOOOOOOOO",
"............@@@@.........................@@@....................",
"........................@@@@....%%%%%%%%%%%%%%%%....@@@@........",
"OOOOOOOOOOOOOOOOOOOOOO%..@@..%O==oo--o--------o==O%..@@..%OOOOOO",
"oooooooooooooooooooooo=O.@@.O=-+X$************$X+-=O.@@.O=oooooo",
"++++++++++++++++++++++-=%..%=-X*&&############&&$X-=%..%=-++++++",
"XXXXXXXXXXXXXXXXXXXX X+oO..Oo+$&&##############&&$+oO..Oo+X XXXX",
"                   $$ +oO..Oo+$&&##############&&$+oO..Oo+ $    ",
"                    $X+oO..Oo+ **&&&&&&&&&&&&&&** +oO..Oo+X     ",
"XXXXXXXXXXXXXXXXXXX  X+oO..Oo+X$$$$$$$$$$$$$$$$$$X+oO..Oo+X  XXX",
"XXXXXXXXXXXXXXXXXXX  X+oO..Oo+X  XXXXXXXXXXXXXX  X+oO..Oo+X  XXX",
"                    $X+oO..Oo+X  XXXXXXXXXXXXXX  X+oO..Oo+X     ",
"                   $$ +oO..Oo+ $ XXXXXXXXXXXXXX $ +oO..Oo+ $    ",
"XXXXXXXXXXXXXXXXXXXX X+oO..Oo+X XXXXXXXXXXXXXXXX X+oO..Oo+X XXXX",
"++++++++++++++++++++++-=%..%=-++++++++++++++++++++-=%..%=-++++++",
"oooooooooooooooooooooo=O.@@.O=oooooooooooooooooooo=O.@@.O=oooooo",
"O%O%O%O%OOOOOOOOOOOOOO%..@@..%OOOOOOOOOOOOOOOOOOOO%.@@@@.%OOOOOO",
"........................@@@@.........................@@@........",
"%%%%%%%%....@@@@........................@@@@....%%%%%%%%%%%%%%%%",
"ooo--oo==O%..@@..%OOOOOOOOOOOOOOOOOOOO%..@@..%O==o--------oooooo",
"******$X+-=O.@@.O=oooooooooooooooooooo=O.@@.O=-+X$**************",
"######&&$X-=%..%=-++++++++++++++++++++-=%..%=-X*&&##############",
"#######&&$+oO..Oo+X XXXXXXXXXXXXXXXX X+oO..Oo+$&&###############",
"#######&&$+oO..Oo+ $$              $$ +oO..Oo+$&&###############",
"&&&&&&&** +oO..Oo+X$                $X+oO..Oo+ **&&&&&&&&&&&&&&&",
"$$$$$$$$$X+oO..Oo+X  XXXXXXXXXXXXXX  X+oO..Oo+X$$$$$$$$$$$$$$$$$",
"XXXXXXX  X+oO..Oo+X  XXXXXXXXXXXXXX  X+oO..Oo+X  XXXXXXXXXXXXXXX",
"XXXXXXXXXX+oO..Oo+X  XXXXXXXXXXXXXX  X+oO..Oo+XXXXXXXXXXXXXXXXXX",
"XXXXXXXX X+oO..Oo+X  XXXXXXXXXXXXXX  X+oO..Oo+X XXXXXXXXXXXXXXXX",
"XXXXXXXX X+oO..Oo+X  XXXXXXXXXXXXXX  X+oO..Oo+X XXXXXXXXXXXXXXXX",
"XXXXXXX  X+oO..Oo+X  XXXXXXXXXXXXXX  X+oO..Oo+X  XXXXXXXXXXXXXXX",
"XXXXXXX  X+oO..Oo+X  XXXXXXXXXXXXXX  X+oO..Oo+X  XXXXXXXXXXXXXXX"
};
