/* XPM */
static char *_0cba5bedf2d4f40fa739c21d3f4dc01El8lcTuYxBMJODic[] = {
/* columns rows colors chars-per-pixel */
"64 64 2 1 ",
"  c #C6BB9F",
". c #C1B49B",
/* pixels */
"................................................................",
"................................................................",
"................................................................",
"................................................................",
"....... .. . . . .  ...........  ..  .......... .. . . . . . . .",
"......                ........        ........                  ",
".....                  ......          ......                   ",
"....                    ....            ....                    ",
"....                   .....           .....                    ",
".....                  ......          ......                   ",
".....                  ......          ......                   ",
".....                   .....          ......                   ",
".....                  ......          ......                   ",
".....                  ......          ......                   ",
".....                  ......          ......                   ",
".....                   .....          ......                   ",
".....                  ......          ......                   ",
".....                  ......          ......                   ",
".....                  ......          ......                   ",
".....                   .....          ......                   ",
".....                  ......          ......                   ",
"....                    ....            ....                    ",
".... .                 ..... .         ..... .                  ",
".....  ............... ......  ....... ......  .................",
"................................................................",
"................................................................",
"................................................................",
"................................................................",
"....... .. . . . . .  .......  . .   .......... .. . . . . . . .",
"......                  ....       .  ........                  ",
".....                                  ......                   ",
"....                                    ....                    ",
"....                                   .....                    ",
".....                                  ......                   ",
".....                                  ......                   ",
".....                                   .....                   ",
".....                                  ......                   ",
"....                                    ....                    ",
".... .                                 .....                    ",
".....  ............................... ......                   ",
"..............................................                  ",
"..............................................                  ",
".............................................                   ",
"............................................                    ",
".......  ..  .......... .. . . . .  ........                    ",
"......        ........                .......                   ",
".....          ......                  ......                   ",
"....            ....                    .....                   ",
"....           .....                   ......                   ",
".....          ......                  .....                    ",
".....          ......                  ..... .                  ",
".....          ......                   .....  .................",
".....          ......                  .........................",
".....          ......                  .........................",
".....          ......                 ..........................",
".....          ......                 ..........................",
".....          ......                  ........ .. . . . . . . .",
".....          ......                   ......                  ",
".....          ......                  ......                   ",
".....          ......                  .....                    ",
".....          ......                  .....                    ",
".....          ......                   .....                   ",
".....          ......                  ......                   ",
".....          ......                  ......                   "
};
