/* XPM */
static char *_49d633c3ed543de85f69f12a3ac389cyY99njzj5S6vcfCC[] = {
/* columns rows colors chars-per-pixel */
"64 64 153 2 ",
"   c #010001",
".  c #0B0002",
"X  c #06050B",
"o  c #08070F",
"O  c #060A0B",
"+  c #080D0E",
"@  c #120103",
"#  c #190200",
"$  c #150108",
"%  c #1C010B",
"&  c #0B0A14",
"*  c #0E0D1A",
"=  c #100F1E",
"-  c #0D1417",
";  c #0D1719",
":  c #11101F",
">  c #10181B",
",  c #240200",
"<  c #2D0300",
"1  c #23010E",
"2  c #360400",
"3  c #3D0400",
"4  c #270110",
"5  c #2D0112",
"6  c #340115",
"7  c #3A0117",
"8  c #3F0119",
"9  c #110F20",
"0  c #151327",
"q  c #111D20",
"w  c #142326",
"e  c #152528",
"r  c #18252A",
"t  c #1A282D",
"y  c #1D2F34",
"u  c #1E3136",
"i  c #1F363C",
"p  c #20383E",
"a  c #470501",
"s  c #4C0501",
"d  c #520600",
"f  c #470217",
"g  c #4A0214",
"h  c #42011A",
"j  c #4B011E",
"k  c #52021E",
"l  c #640701",
"z  c #730800",
"x  c #75051A",
"c  c #550221",
"v  c #5C0224",
"b  c #630226",
"n  c #6A0325",
"m  c #650228",
"M  c #6A022A",
"N  c #780422",
"B  c #74022E",
"V  c #7A022E",
"C  c #7C0331",
"Z  c #233B41",
"A  c #264249",
"S  c #2C444C",
"D  c #2B4B54",
"F  c #324F58",
"G  c #2F525B",
"H  c #30545E",
"J  c #325761",
"K  c #395963",
"L  c #365F69",
"P  c #37616B",
"I  c #39646F",
"U  c #3A6671",
"Y  c #3C6974",
"T  c #3F6C78",
"R  c #40636F",
"E  c #426773",
"W  c #426872",
"Q  c #456C78",
"!  c #41707C",
"~  c #820901",
"^  c #8D0A00",
"/  c #940A00",
"(  c #9C0B01",
")  c #A50C00",
"_  c #AD0C01",
"`  c #B20C01",
"'  c #BA0D00",
"]  c #BE0B16",
"[  c #B3091D",
"{  c #B90B19",
"}  c #89042F",
"|  c #9C0722",
" . c #9B052D",
".. c #840334",
"X. c #8C0337",
"o. c #920433",
"O. c #A60726",
"+. c #A90723",
"@. c #AC0821",
"#. c #C50E00",
"$. c #CB0E00",
"%. c #C70D0A",
"&. c #CB0D0E",
"*. c #D50F03",
"=. c #DA0F03",
"-. c #D30E08",
";. c #DE1001",
":. c #C50C11",
">. c #C80C10",
",. c #E01000",
"<. c #467683",
"1. c #4C7C8A",
"2. c #4F8391",
"3. c #578E9F",
"4. c #5C8D9C",
"5. c #5D95A5",
"6. c #619CAD",
"7. c #699DAD",
"8. c #67A5B6",
"9. c #6BA7BA",
"0. c #6CAABD",
"q. c #79AFC0",
"w. c #6FB1C4",
"e. c #71B3C7",
"r. c #74B6CA",
"t. c #77BACF",
"y. c #7ABED3",
"u. c #7AC0D4",
"i. c #7EC6DC",
"p. c #80C7DD",
"a. c #8DC8DA",
"s. c #90C4D4",
"d. c #A5D1DF",
"f. c #ADD2DD",
"g. c #86CAE0",
"h. c #8CCDE1",
"j. c #91CFE2",
"k. c #97D2E5",
"l. c #9CD3E5",
"z. c #A1D6E6",
"x. c #ADD7E5",
"c. c #AADAE9",
"v. c #B4DAE6",
"b. c #B4DEEA",
"n. c #C9E6F0",
"m. c #CDE9F2",
"M. c #D6EBF2",
"N. c #E0F2F7",
"B. c #E6F5F9",
"V. c #EBF6FA",
"C. c #EDF7FB",
"Z. c #F1F9FC",
"A. c #F5FBFD",
/* pixels */
"0 0 0 0 0 0 0 0 0 0 0 0 0 0 0 0 0 0 0 0 0 0 0 0 0 0 0 0 0 0 0 0 0 0 0 0 0 0 0 0 0 0 0 0 0 0 0 0 0 0 0 0 0 0 0 0 0 0 0 0 0 0 0 0 ",
"0 0 0 0 0 0 0 0 0 0 0 0 0 0 0 0 0 0 0 0 0 0 0 0 0 0 * o X X X X X X X X X X o & : 0 0 0 0 0 0 0 0 0 0 0 0 0 0 0 0 0 0 0 0 0 0 0 ",
"0 0 0 0 0 0 0 0 0 0 0 0 0 0 0 0 0 0 0 0 0 0 0 0 * X                               X & 0 0 0 0 0 0 0 0 0 0 0 0 0 0 0 0 0 0 0 0 0 ",
"0 0 0 0 0 0 0 0 0 0 0 0 0 0 0 0 0 0 0 0 0 0 0 &                                       X & 0 0 0 0 0 0 0 0 0 0 0 0 0 0 0 0 0 0 0 ",
"0 0 0 0 0 0 0 0 0 0 0 0 0 0 0 0 0 0 0 0 0 0 &         @ , d l a < , , , # # @ .           X 0 0 0 0 0 0 0 0 0 0 0 0 0 0 0 0 0 0 ",
"0 0 0 0 0 0 0 0 0 0 0 0 0 0 0 0 0 0 0 0 0 *       . < ` ;.,.,.,.,.,.,.,.;.*.' z , .         X = 0 0 0 0 0 0 0 0 0 0 0 0 0 0 0 0 ",
"0 0 0 0 0 0 0 0 0 0 0 0 0 0 0 0 0 0 0 0 0 X     . d $.;.,.,.,.,.,.,.,.,.,.,.,.;.$.z #         X 0 0 0 0 0 0 0 0 0 0 0 0 0 0 0 0 ",
"0 0 0 0 0 0 0 0 0 0 0 0 0 0 0 0 0 0 0 0 &       s $.,.,.,.,.,.,.,.,.,.,.,.,.,.,.,.;.) ,         X 0 0 0 0 0 0 0 0 0 0 0 0 0 0 0 ",
"0 0 0 0 0 0 0 0 0 0 0 0 0 0 0 0 0 0 0 0 X     # ` ;.,.,.,.,.,.,.,.,.,.,.,.,.,.,.,.,.;.` ,         & 0 0 0 0 0 0 0 0 0 0 0 0 0 0 ",
"0 0 0 0 0 0 0 0 0 0 0 0 0 0 0 0 0 0 0 *       g %.,.,.,.,.,.,.,.,.*.$.' ) / ^ ^ ^ / / / 2         X 0 0 0 0 0 0 0 0 0 0 0 0 0 0 ",
"0 0 0 0 0 0 0 0 0 0 0 0 0 0 0 0 0 0 0 o     . N -.,.,.,.,.,.*.) z d 2 # @ . . . . . . .             & 0 0 0 0 0 0 0 0 0 0 0 0 0 ",
"0 0 0 0 0 0 0 0 0 0 0 0 0 0 0 0 0 0 0 X     5 | =.,.,.,.,.' a @                                       * 0 0 0 0 0 0 0 0 0 0 0 0 ",
"0 0 0 0 0 0 0 0 0 0 0 0 0 0 0 0 0 0 0       j { ;.,.,.,.$.<           X - t A K W Q R F u > X           * 0 0 0 0 0 0 0 0 0 0 0 ",
"0 0 0 0 0 0 0 0 0 0 0 0 0 0 0 0 0 0 *     . n >.,.,.,.,.~ .     X Z E 5.9.e.y.a.x.v.v.d.s.q.4.Z O         = 0 0 0 0 0 0 0 0 0 0 ",
"0 0 0 0 0 0 0 0 0 0 0 0 0 0 0 0 0 0 &     $ V >.,.,.,.,.3       A 0.u.i.p.p.j.N.Z.Z.Z.Z.C.B.M.f.7.y       X 0 0 0 0 0 0 0 0 0 0 ",
"0 0 0 0 0 0 0 0 0 0 0 0 0 0 0 0 0 0 X     4 } >.,.,.,.,.,     ; I 6.p.p.p.p.l.C.A.A.A.A.A.A.A.Z.n.r.S       * 0 0 0 0 0 0 0 0 0 ",
"0 0 0 0 0 0 0 0 0 0 0 0 0 0 0 0 0 *       6 o.&.,.,.,.;.#     p I 1.p.p.p.p.h.m.V.A.A.A.A.A.A.A.B.p.t.r     X 0 0 0 0 0 0 0 0 0 ",
"0 0 0 0 0 0 0 0 0 0 0 0 * o X X           j o.&.,.,.,.*.#     D I Y r.p.p.p.p.g.h.h.k.z.c.b.b.b.l.p.p.1.    X 0 0 0 0 0 0 0 0 0 ",
"0 0 0 0 0 0 0 0 0 0 0 o                 . v o.&.,.,.,.=.#     J I U 2.i.p.p.p.p.p.p.p.p.p.p.p.p.p.p.p.9.      0 0 0 0 0 0 0 0 0 ",
"0 0 0 0 0 0 0 0 0 0 o                   . M o.>.,.,.,.;.#     H I I U 3.i.p.p.p.p.p.p.p.p.p.p.p.p.p.w.T X     0 0 0 0 0 0 0 0 0 ",
"0 0 0 0 0 0 0 0 0 =         # ^ ( s     $ B o.>.,.,.,.,.2     A I I I U <.6.y.p.p.p.i.u.e.8.5.2.<.! U L     X 0 0 0 0 0 0 0 0 0 ",
"0 0 0 0 0 0 0 0 0 &       , *.,.,.$..   $ C o.:.,.,.,.,.l     q I I I I I I I U U U I I I I I I I I I i     X 0 0 0 0 0 0 0 0 0 ",
"0 0 0 0 0 0 0 0 0 X       / ,.,.,.#.    $ C X.] ,.,.,.,.) .     Z I I I I I I I I I I I I I I I I I G       X 0 0 0 0 0 0 0 0 0 ",
"0 0 0 0 0 0 0 0 0 X       #.,.;.;._     % ..X.{ ,.,.,.,.*.@       Z P I I I I I I I I I I I I I L Z         o 0 0 0 0 0 0 0 0 0 ",
"0 0 0 0 0 0 0 0 0 X     . *.-.>.@.x     1 ..X.[ ;.,.,.,.,.z         w J L I I I I I I I P L J y X           = 0 0 0 0 0 0 0 0 0 ",
"0 0 0 0 0 0 0 0 0 X     1 o.X.X.X.b     1 ..X.@.=.,.,.,.,.$.,         X e D G H H H G D u +               o 0 0 0 0 0 0 0 0 0 0 ",
"0 0 0 0 0 0 0 0 0 X     5 X.X.X.X.b     1 ..X.O.=.,.,.,.,.,.` ,                                 .         0 0 0 0 0 0 0 0 0 0 0 ",
"0 0 0 0 0 0 0 0 0 X     6 X.X.X.X.m     1 ..X. .-.,.,.,.,.,.,.#.a @                       @ , a ~ ,       0 0 0 0 0 0 0 0 0 0 0 ",
"0 0 0 0 0 0 0 0 0 X     h X.X.X.X.m     1 ..X.o.&.,.,.,.,.,.,.,.;._ d < # @ . @ # , 2 d z ) *.;.,.s       0 0 0 0 0 0 0 0 0 0 0 ",
"0 0 0 0 0 0 0 0 0 X     j X.X.X.X.m     1 ..X.o.>.,.,.,.,.,.,.,.,.,.;.*.` ( / ( _ $.;.;.,.,.,.,.;.f       0 0 0 0 0 0 0 0 0 0 0 ",
"0 0 0 0 0 0 0 0 0 X     c X.X.X.X.m     1 ..X.X.] ;.,.,.,.,.,.,.,.,.,.,.,.,.,.,.,.,.,.,.,.,.,.,.=.k       * 0 0 0 0 0 0 0 0 0 0 ",
"0 0 0 0 0 0 0 0 0 X     b X.X.X.X.m     1 ..X.X.@.=.,.,.,.,.,.,.,.,.,.,.,.,.,.,.,.,.,.,.,.,.,.,.&.v       & 0 0 0 0 0 0 0 0 0 0 ",
"0 0 0 0 0 0 0 0 0 X     n X.X.X.X.m     1 ..X.X. .-.,.,.,.,.,.,.,.,.,.,.,.,.,.,.,.,.,.,.,.,.,.,.:.b       o 0 0 0 0 0 0 0 0 0 0 ",
"0 0 0 0 0 0 0 0 0 X     M X.X.X.X.m     1 ..X.X.o.&.,.,.,.,.,.,.,.,.,.,.,.,.,.,.,.,.,.,.,.,.,.,.[ b       o 0 0 0 0 0 0 0 0 0 0 ",
"0 0 0 0 0 0 0 0 0 X     B X.X.X.X.M     1 ..X.X.X.[ =.,.,.,.,.,.,.,.,.,.,.,.,.,.,.,.,.,.,.,.,.,. .m       o 0 0 0 0 0 0 0 0 0 0 ",
"0 0 0 0 0 0 0 0 0 X     V X.X.X.X.M     1 ..X.X.X. .-.,.,.,.,.,.,.,.,.,.,.,.,.,.,.,.,.,.,.,.,.-.o.b       o 0 0 0 0 0 0 0 0 0 0 ",
"0 0 0 0 0 0 0 0 0 X     V X.X.X.X.M     1 ..X.X.X.X.] ;.,.,.,.,.,.,.,.,.,.,.,.,.,.,.,.,.,.,.,.:.X.b       & 0 0 0 0 0 0 0 0 0 0 ",
"0 0 0 0 0 0 0 0 0 X     B X.X.X.X.M     1 ..X.X.X.X.o.-.,.,.,.,.,.,.,.,.,.,.,.,.,.,.,.,.,.,.;. .X.v       & 0 0 0 0 0 0 0 0 0 0 ",
"0 0 0 0 0 0 0 0 0 X     M X.X.X.X.M     % ..X.X.X.X.X.O.=.,.,.,.,.,.,.,.,.,.,.,.,.,.,.,.,.,.>.o.X.j       * 0 0 0 0 0 0 0 0 0 0 ",
"0 0 0 0 0 0 0 0 0 X     b X.X.X.X.M     % C X.X.X.X.X.X.+.=.,.,.,.,.,.,.,.,.,.,.,.,.,.,.;.&.o.X.X.h       = 0 0 0 0 0 0 0 0 0 0 ",
"0 0 0 0 0 0 0 0 0 X     c X.X.X.X.M     % C X.X.X.X.X.X.X.o.@.>.&.=.;.;.,.,.,.,.,.;.;.-.O.o.X.X.X.5       0 0 0 0 0 0 0 0 0 0 0 ",
"0 0 0 0 0 0 0 0 0 X     8 X.X.X.X.C     $ C X.X.X.X.X.X.X.X.X.X.X.X.X.o.+.{ [  .o.X.X.X.X.X.X.X.X.$       0 0 0 0 0 0 0 0 0 0 0 ",
"0 0 0 0 0 0 0 0 0 X     1 X.X.X.X.C     $ C X.X.X.X.X.X.X.X.X.X.X.X.X.X.X.X.X.X.X.X.X.X.X.X.X.X.X.      X 0 0 0 0 0 0 0 0 0 0 0 ",
"0 0 0 0 0 0 0 0 0 &       C X.X.X.C .   $ B X.X.X.X.X.X.X.X.X.X.X.X.X.X.X.X.X.X.X.X.X.X.X.X.X.X.B       o 0 0 0 0 0 0 0 0 0 0 0 ",
"0 0 0 0 0 0 0 0 0 =       1 C X.X.B     $ B X.X.X.X.X.X.X.X.X.X.X.X.X.X.X.X.X.X.X.X.X.X.X.X.X.X.v       & 0 0 0 0 0 0 0 0 0 0 0 ",
"0 0 0 0 0 0 0 0 0 0 X       . j v 4     . B X.X.X.X.X.X.X.X.X.X.C M B ........X.X.X.......X.X.X.h       * 0 0 0 0 0 0 0 0 0 0 0 ",
"0 0 0 0 0 0 0 0 0 0 =                   . M X.X.X.X.X.X.X.X.X.v         $ 5 7 h h 8 6 5 j ..X.X.%       0 0 0 0 0 0 0 0 0 0 0 0 ",
"0 0 0 0 0 0 0 0 0 0 0 &                 . b X.X.X.X.X.X.X.X.X.1                     . h ..X.X.C         0 0 0 0 0 0 0 0 0 0 0 0 ",
"0 0 0 0 0 0 0 0 0 0 0 0 * X X X X       . c X.X.X.X.X.X.X.X.X.$                 . h B X.X.X.X.b       X 0 0 0 0 0 0 0 0 0 0 0 0 ",
"0 0 0 0 0 0 0 0 0 0 0 0 0 0 0 9 0 *       j X.X.X.X.X.X.X.X.X..       X X       8 ..X.X.X.X.X.j       o 0 0 0 0 0 0 0 0 0 0 0 0 ",
"0 0 0 0 0 0 0 0 0 0 0 0 0 0 0 0 0 0 X     h X.X.X.X.X.X.X.X.X.        0 *     . m X.X.X.X.X.X.h       & 0 0 0 0 0 0 0 0 0 0 0 0 ",
"0 0 0 0 0 0 0 0 0 0 0 0 0 0 0 0 0 0 X     6 X.X.X.X.X.X.X.X...        0 *     $ B X.X.X.X.X.X.j       * 0 0 0 0 0 0 0 0 0 0 0 0 ",
"0 0 0 0 0 0 0 0 0 0 0 0 0 0 0 0 0 0 X     5 ..X.X.X.X.X.X.X...        0 =     $ B X.X.X.X.X.X.j       = 0 0 0 0 0 0 0 0 0 0 0 0 ",
"0 0 0 0 0 0 0 0 0 0 0 0 0 0 0 0 0 0 &     1 ..X.X.X.X.X.X.X...        0 0     . M X.X.X.X.X.X.8       0 0 0 0 0 0 0 0 0 0 0 0 0 ",
"0 0 0 0 0 0 0 0 0 0 0 0 0 0 0 0 0 0 &     % C X.X.X.X.X.X.X.B       X 0 0 o     7 C ........B $     o 0 0 0 0 0 0 0 0 0 0 0 0 0 ",
"0 0 0 0 0 0 0 0 0 0 0 0 0 0 0 0 0 0 *     $ B X.X.X.X.X.X.X.h       : 0 0 = X   . % 6 6 4 1 $       = 0 0 0 0 0 0 0 0 0 0 0 0 0 ",
"0 0 0 0 0 0 0 0 0 0 0 0 0 0 0 0 0 0 0       7 V X.X.X.X...c .     X 0 0 0 0 &                   X = 0 0 0 0 0 0 0 0 0 0 0 0 0 0 ",
"0 0 0 0 0 0 0 0 0 0 0 0 0 0 0 0 0 0 0 X       $ 1 8 j 7 % .       & 0 0 0 0 0 * X X X X X X X o 0 0 0 0 0 0 0 0 0 0 0 0 0 0 0 0 ",
"0 0 0 0 0 0 0 0 0 0 0 0 0 0 0 0 0 0 0 = X                       o 0 0 0 0 0 0 0 0 0 0 0 0 0 0 0 0 0 0 0 0 0 0 0 0 0 0 0 0 0 0 0 ",
"0 0 0 0 0 0 0 0 0 0 0 0 0 0 0 0 0 0 0 0 0 o                 X * 0 0 0 0 0 0 0 0 0 0 0 0 0 0 0 0 0 0 0 0 0 0 0 0 0 0 0 0 0 0 0 0 ",
"0 0 0 0 0 0 0 0 0 0 0 0 0 0 0 0 0 0 0 0 0 0 0 = & X X X & = 0 0 0 0 0 0 0 0 0 0 0 0 0 0 0 0 0 0 0 0 0 0 0 0 0 0 0 0 0 0 0 0 0 0 ",
"0 0 0 0 0 0 0 0 0 0 0 0 0 0 0 0 0 0 0 0 0 0 0 0 0 0 0 0 0 0 0 0 0 0 0 0 0 0 0 0 0 0 0 0 0 0 0 0 0 0 0 0 0 0 0 0 0 0 0 0 0 0 0 0 ",
"0 0 0 0 0 0 0 0 0 0 0 0 0 0 0 0 0 0 0 0 0 0 0 0 0 0 0 0 0 0 0 0 0 0 0 0 0 0 0 0 0 0 0 0 0 0 0 0 0 0 0 0 0 0 0 0 0 0 0 0 0 0 0 0 ",
"0 0 0 0 0 0 0 0 0 0 0 0 0 0 0 0 0 0 0 0 0 0 0 0 0 0 0 0 0 0 0 0 0 0 0 0 0 0 0 0 0 0 0 0 0 0 0 0 0 0 0 0 0 0 0 0 0 0 0 0 0 0 0 0 "
};
